<?xml version="1.0" encoding="UTF-8"?>
<svg xmlns="http://www.w3.org/2000/svg" version="1.1" viewBox="0 0 800 600">
  <!-- Generator: Adobe Illustrator 29.2.0, SVG Export Plug-In . SVG Version: 2.1.0 Build 108)  -->
  <defs>
    <style>
      .st0 {
        fill: #c1d7e4;
      }

      .st1 {
        fill: #9aa6a2;
      }

      .st2 {
        fill: #fff;
      }

      .st3 {
        isolation: isolate;
      }

      .st4 {
        fill: #ffb5c5;
      }

      .st5 {
        fill: #ffc496;
      }

      .st6 {
        fill: #e5edea;
      }

      .st7 {
        mix-blend-mode: multiply;
      }

      .st8 {
        fill: #b7bbba;
      }

      .st9 {
        fill: #adb2b0;
      }

      .st10 {
        mix-blend-mode: darken;
      }

      .st11 {
        fill: #e6ecea;
      }

      .st12 {
        fill: #5f6966;
      }
    </style>
  </defs>
  <g class="st3">
    <g id="Layer_1">
      <path class="st0" d="M122.5,245.1c0,2.7-1.5,5.1-3.6,6.5-.9,1.5-1.5,3.3-1.5,5.2,0,5.4,4.4,9.8,9.8,9.8l14.4-.3v-51.4H61.7c-6.6,0-12,5.4-12,12s5.4,12,12,12l53.1-1.5c4.2,0,7.6,3.4,7.6,7.6Z"/>
      <path class="st0" d="M763.9,340.6c-.5-.1-1.1-.2-1.6-.2h-13.3c-3-.7-5.2-3.4-5.2-6.5s3-6.7,6.7-6.7l6.2-.4c3.7,0,6.7-3,6.7-6.7s-3-6.7-6.7-6.7h-41.7c.7-1.6,1.1-3.3,1.1-5.1,0-6.4-5.2-11.6-11.6-11.6h-8s-3.7,0-3.7,0c-3,0-5.5-2.4-5.5-5.5s2.4-5.5,5.5-5.5l27.3.7c5.8,0,10.6-4.7,10.6-10.6s-4.7-10.5-10.6-10.5h-70.5c-5.8,0-10.5,4.7-10.5,10.5s4.7,10.6,10.5,10.6l14.2-.4c3,0,5.5,2.4,5.5,5.5s-2.4,5.5-5.5,5.5l-27-.4c-6.4,0-11.6,5.2-11.6,11.6s.4,3.5,1.1,5H176.2c0,0-4.8,10.5-4.8,10.5l-15.2-10.4h-51.6c0,0-30.9,0-30.9,0-5.2,0-9.3,3.3-10.7,8-.3,1-.3,1.8-.3,2.9s0,2.8,0,3.8v246.6h707.2v-226.6c0-3.7-2.6-6.7-6-7.5ZM693.6,357.7h-44.4c-5.6,0-10.2-4.6-10.2-10.2s4.6-10.2,10.2-10.2h44.4c5.6,0,10.2,4.6,10.2,10.2s-4.6,10.2-10.2,10.2Z"/>
      <path class="st12" d="M454.9,143.2c-.4,0-.8,0-1.2-.2L173.1,24.7c-1.5-.6-2.2-2.4-1.6-3.9.6-1.5,2.4-2.2,3.9-1.6l280.6,118.3c1.5.6,2.2,2.4,1.6,3.9-.5,1.1-1.6,1.8-2.8,1.8Z"/>
      <path class="st12" d="M174.2,93.3c-1.7,0-3-1.3-3-3V21.9c0-1.7,1.3-3,3-3s3,1.3,3,3v68.4c0,1.7-1.3,3-3,3Z"/>
      <path class="st12" d="M18.4,142c-.9,0-1.8-.4-2.4-1.2-1-1.3-.7-3.2.6-4.2L172.4,19.5c1.3-1,3.2-.7,4.2.6,1,1.3.7,3.2-.6,4.2L20.2,141.4c-.5.4-1.2.6-1.8.6Z"/>
      <g>
        <path class="st2" d="M86.6,433.7c0,6.5,5.3,11.8,11.8,11.8s11.8-5.3,11.8-11.8-5.3-11.8-11.8-11.8-11.8,5.3-11.8,11.8Z"/>
        <path class="st12" d="M98.3,448.5c-8.1,0-14.8-6.6-14.8-14.8s6.6-14.8,14.8-14.8,14.8,6.6,14.8,14.8-6.6,14.8-14.8,14.8ZM98.3,424.9c-4.8,0-8.8,3.9-8.8,8.8s3.9,8.8,8.8,8.8,8.8-3.9,8.8-8.8-3.9-8.8-8.8-8.8Z"/>
      </g>
      <g>
        <rect class="st2" x="725.5" y="360.2" width="3.6" height="134.1"/>
        <rect class="st12" x="722.4" y="357.2" width="9.7" height="140.1" rx="3" ry="3"/>
      </g>
      <g>
        <rect class="st11" x="720.7" y="496.4" width="13.1" height="50.2"/>
        <path class="st12" d="M733.8,549.7h-13.1c-1.7,0-3-1.3-3-3v-50.2c0-1.7,1.3-3,3-3h13.1c1.7,0,3,1.3,3,3v50.2c0,1.7-1.3,3-3,3ZM723.7,543.6h7.1v-44.2h-7.1v44.2Z"/>
      </g>
      <g>
        <rect class="st11" x="708.7" y="545.9" width="37.1" height="15.3"/>
        <path class="st12" d="M745.8,564.2h-37.1c-1.7,0-3-1.3-3-3v-15.3c0-1.7,1.3-3,3-3h37.1c1.7,0,3,1.3,3,3v15.3c0,1.7-1.3,3-3,3ZM711.7,558.2h31.1v-9.3h-31.1v9.3Z"/>
      </g>
      <g>
        <path class="st11" d="M227.8,227h375.4c3,0,5.5,2.4,5.5,5.5v280.5c0,3-2.4,5.5-5.5,5.5H227.8c-3,0-5.5-2.4-5.5-5.5V232.4c0-3,2.4-5.5,5.5-5.5Z"/>
        <path class="st12" d="M603.2,521.4H227.8c-4.7,0-8.5-3.8-8.5-8.5V232.4c0-4.7,3.8-8.5,8.5-8.5h375.4c4.7,0,8.5,3.8,8.5,8.5v280.5c0,4.7-3.8,8.5-8.5,8.5ZM227.8,230c-1.4,0-2.4,1.1-2.4,2.4v280.5c0,1.4,1.1,2.4,2.4,2.4h375.4c1.4,0,2.4-1.1,2.4-2.4V232.4c0-1.4-1.1-2.4-2.4-2.4H227.8Z"/>
      </g>
      <path class="st12" d="M768.2,580.5H62.7c-3.5,0-6.3-2.8-6.3-6.3s2.8-6.3,6.3-6.3h705.5c3.5,0,6.3,2.8,6.3,6.3s-2.8,6.3-6.3,6.3Z"/>
      <g>
        <rect class="st2" x="237.8" y="244.4" width="355.4" height="256.5"/>
        <path class="st12" d="M593.2,503.9H237.8c-1.7,0-3-1.3-3-3V244.4c0-1.7,1.3-3,3-3h355.4c1.7,0,3,1.3,3,3v256.5c0,1.7-1.3,3-3,3ZM240.8,497.9h349.4v-250.4H240.8v250.4Z"/>
      </g>
      <g>
        <g>
          <rect class="st5" x="237.8" y="244.4" width="355.4" height="32.9"/>
          <path class="st12" d="M596.2,280.4H234.8v-38.9h361.4v38.9ZM240.8,274.3h349.4v-26.9H240.8v26.9Z"/>
        </g>
        <path class="st12" d="M573.5,263.9h-21.1c-1.7,0-3-1.3-3-3s1.3-3,3-3h21.1c1.7,0,3,1.3,3,3s-1.3,3-3,3Z"/>
        <path class="st12" d="M522.6,263.9h-21.1c-1.7,0-3-1.3-3-3s1.3-3,3-3h21.1c1.7,0,3,1.3,3,3s-1.3,3-3,3Z"/>
      </g>
      <g>
        <rect class="st6" x="254.9" y="296.4" width="323.8" height="37.8"/>
        <path class="st8" d="M578.6,337.2H254.9c-1.7,0-3-1.3-3-3v-37.8c0-1.7,1.3-3,3-3h323.8c1.7,0,3,1.3,3,3v37.8c0,1.7-1.3,3-3,3ZM257.9,331.2h317.8v-31.8h-317.8v31.8Z"/>
      </g>
      <g>
        <rect class="st11" x="312.1" y="553.9" width="206.6" height="20.4"/>
        <path class="st12" d="M518.8,577.3h-206.6c-1.7,0-3-1.3-3-3v-20.4c0-1.7,1.3-3,3-3h206.6c1.7,0,3,1.3,3,3v20.4c0,1.7-1.3,3-3,3ZM315.2,571.3h200.6v-14.4h-200.6v14.4Z"/>
      </g>
      <g class="st10">
        <path class="st9" d="M363.9,364.2c0-.1,0-.2,0-.3,0,0,0-.2,0-.3,0,0,0-.2,0-.3,0,0,0-.2-.1-.3,0,0,0-.2-.1-.3,0,0-.1-.2-.2-.3,0,0,0,0,0-.1l-48.1-55.9c11.5-2.8,20-13.2,20-25.5s-.2-3.3-.5-5c-.3-1.4-1.5-2.4-3-2.4h-19v-44.5h-6v44.5h-20.7c-1.4,0-2.7,1-3,2.4-.3,1.7-.5,3.3-.5,5,0,12.7,9.1,23.4,21.2,25.8l-47.6,55.6s0,0,0,.1c0,0-.1.2-.2.3,0,0,0,.2-.1.2,0,0,0,.2-.1.3,0,0,0,.2,0,.3,0,0,0,.2,0,.3,0,.1,0,.2,0,.3,0,0,0,.1,0,.2v73.3c0,1.7,1.3,3,3,3h102.6c1.7,0,3-1.3,3-3v-73.3c0,0,0-.1,0-.2ZM264.9,361.4l44.6-52.1,44.9,52.1h-89.5Z"/>
      </g>
      <g>
        <path class="st11" d="M474.6,553.9c-7-10.2-11.5-22.4-12.2-35.6h-93.9c-.8,13.2-5.2,25.4-12.2,35.6h118.3Z"/>
        <path class="st12" d="M474.6,557h-118.3c-1.1,0-2.1-.6-2.7-1.6-.5-1-.4-2.2.2-3.1,6.9-10.1,11-21.8,11.7-34,0-1.6,1.4-2.8,3-2.8h93.9c1.6,0,2.9,1.2,3,2.8.7,12.2,4.7,24,11.7,34,.6.9.7,2.1.2,3.1-.5,1-1.5,1.6-2.7,1.6ZM361.8,550.9h107.4c-5.3-9-8.5-19.1-9.5-29.6h-88.3c-1,10.4-4.3,20.5-9.5,29.6Z"/>
      </g>
      <path class="st12" d="M301.3,292.1c-1.7,0-3-1.3-3-3v-101c0-1.7,1.3-3,3-3s3,1.3,3,3v101c0,1.7-1.3,3-3,3Z"/>
      <g>
        <rect class="st4" x="250" y="349.9" width="102.6" height="73.3"/>
        <path class="st12" d="M355.6,426.1h-108.6v-79.3h108.6v79.3ZM253,420.1h96.6v-67.3h-96.6v67.3Z"/>
      </g>
      <g>
        <polygon class="st6" points="549.2 349.9 388 349.9 388 377.5 388 389.9 388 416.1 512.4 416.1 512.4 389.9 549.2 389.9 549.2 349.9"/>
        <path class="st8" d="M512.4,419.1h-124.4c-1.7,0-3-1.3-3-3v-66.2c0-1.7,1.3-3,3-3h161.2c1.7,0,3,1.3,3,3v40c0,1.7-1.3,3-3,3h-33.7v23.2c0,1.7-1.3,3-3,3ZM391,413.1h118.4v-23.2c0-1.7,1.3-3,3-3h33.7v-34h-155.1v60.2Z"/>
      </g>
      <g>
        <rect class="st6" x="388" y="433.2" width="75.7" height="34.2"/>
        <path class="st8" d="M463.7,470.4h-75.7c-1.7,0-3-1.3-3-3v-34.2c0-1.7,1.3-3,3-3h75.7c1.7,0,3,1.3,3,3v34.2c0,1.7-1.3,3-3,3ZM391,464.4h69.7v-28.2h-69.7v28.2Z"/>
      </g>
      <rect class="st8" x="388" y="477.3" width="75.7" height="8.3"/>
      <g>
        <path class="st11" d="M664.1,415.3c0-6.3-5.4-11.4-12-11.4h-77.1c-6.6,0-12,5.1-12,11.4v147.6c0,6.3,5.4,11.4,12,11.4h77.1c6.6,0,12-5.1,12-11.4v-147.6Z"/>
        <path class="st12" d="M652.1,577.2h-77.1c-8.3,0-15-6.4-15-14.4v-147.6c0-7.9,6.8-14.4,15-14.4h77.1c8.3,0,15,6.4,15,14.4v147.6c0,7.9-6.8,14.4-15,14.4ZM575,407c-5,0-9,3.7-9,8.3v147.6c0,4.6,4.1,8.3,9,8.3h77.1c5,0,9-3.7,9-8.3v-147.6c0-4.6-4.1-8.3-9-8.3h-77.1Z"/>
      </g>
      <g>
        <rect class="st2" x="573.2" y="416.4" width="80.8" height="133.9"/>
        <path class="st12" d="M653.9,553.3h-80.8c-1.7,0-3-1.3-3-3v-133.9c0-1.7,1.3-3,3-3h80.8c1.7,0,3,1.3,3,3v133.9c0,1.7-1.3,3-3,3ZM576.2,547.3h74.7v-127.9h-74.7v127.9Z"/>
      </g>
      <g>
        <path class="st11" d="M769.1,574.3c-.6-7.7-7-13.8-14.9-13.8h-53.8c-7.9,0-14.3,6.1-14.9,13.8h83.6Z"/>
        <path class="st12" d="M769.1,577.3h-83.6c-.8,0-1.6-.3-2.2-1-.6-.6-.9-1.4-.8-2.3.7-9.3,8.5-16.6,17.9-16.6h53.8c9.3,0,17.2,7.3,17.9,16.6,0,.8-.2,1.7-.8,2.3-.6.6-1.4,1-2.2,1ZM689.2,571.3h76.2c-1.7-4.6-6.1-7.8-11.2-7.8h-53.8c-5.1,0-9.5,3.2-11.2,7.8Z"/>
      </g>
      <g>
        <path class="st11" d="M715.9,490.6c-.6,1.1-1,2.3-1,3.6,0,4,3.3,7.3,7.3,7.3h10.2c4,0,7.3-3.3,7.3-7.3s-.4-2.6-1-3.6h-22.8Z"/>
        <path class="st12" d="M732.4,504.6h-10.2c-5.7,0-10.3-4.6-10.3-10.3s.5-3.6,1.4-5.1c.5-.9,1.5-1.5,2.6-1.5h22.8c1.1,0,2.1.6,2.6,1.5.9,1.6,1.4,3.3,1.4,5.1,0,5.7-4.6,10.3-10.3,10.3ZM718,493.6c0,.2,0,.4,0,.6,0,2.4,1.9,4.3,4.3,4.3h10.2c2.4,0,4.3-1.9,4.3-4.3s0-.4,0-.6h-18.6Z"/>
      </g>
      <path class="st12" d="M737.8,451.4h-21.1c-1.7,0-3-1.3-3-3s1.3-3,3-3h21.1c1.7,0,3,1.3,3,3s-1.3,3-3,3Z"/>
      <path class="st12" d="M737.8,401.8h-21.1c-1.7,0-3-1.3-3-3s1.3-3,3-3h21.1c1.7,0,3,1.3,3,3s-1.3,3-3,3Z"/>
      <path class="st12" d="M737.8,375h-21.1c-1.7,0-3-1.3-3-3s1.3-3,3-3h21.1c1.7,0,3,1.3,3,3s-1.3,3-3,3Z"/>
      <g class="st10">
        <rect class="st9" x="586.6" y="442.2" width="77.5" height="34.3"/>
      </g>
      <path class="st12" d="M727.3,364.1c-1.7,0-3-1.3-3-3v-21.8c0-1.7,1.3-3,3-3s3,1.3,3,3v21.8c0,1.7-1.3,3-3,3Z"/>
      <g>
        <polygon class="st2" points="690.7 465.2 690.7 434.2 737.3 434.2 737.3 420.8 678.3 420.8 678.3 478.6 737.3 478.6 737.3 465.2 690.7 465.2"/>
        <path class="st12" d="M737.3,481.6h-58.9c-1.7,0-3-1.3-3-3v-57.8c0-1.7,1.3-3,3-3h58.9c1.7,0,3,1.3,3,3v13.5c0,1.7-1.3,3-3,3h-43.6v24.9h43.6c1.7,0,3,1.3,3,3v13.5c0,1.7-1.3,3-3,3ZM681.3,475.6h52.9v-7.4h-43.6c-1.7,0-3-1.3-3-3v-30.9c0-1.7,1.3-3,3-3h43.6v-7.4h-52.9v51.8Z"/>
      </g>
      <path class="st12" d="M749.6,432.2h-12.4c-1.7,0-3-1.3-3-3s1.3-3,3-3h12.4c1.7,0,3,1.3,3,3s-1.3,3-3,3Z"/>
      <path class="st12" d="M750,472.5h-12.4c-1.7,0-3-1.3-3-3s1.3-3,3-3h12.4c1.7,0,3,1.3,3,3s-1.3,3-3,3Z"/>
      <rect class="st12" x="583.4" y="515.8" width="10.2" height="23.7"/>
      <rect class="st12" x="600.1" y="524.3" width="10.2" height="15.2"/>
      <rect class="st12" x="616.9" y="485.2" width="10.2" height="54.4"/>
      <rect class="st12" x="633.6" y="498.1" width="10.2" height="41.5"/>
      <path class="st12" d="M62.7,581c-3.5,0-6.3-2.8-6.3-6.3v-188.1c0-3.5,2.8-6.3,6.3-6.3s6.3,2.8,6.3,6.3v188.1c0,3.5-2.8,6.3-6.3,6.3Z"/>
      <path class="st12" d="M98.5,425.2c-1.7,0-3-1.3-3-3v-15.2h-29.8c-1.7,0-3-1.3-3-3s1.3-3,3-3h32.8c1.7,0,3,1.3,3,3v18.2c0,1.7-1.3,3-3,3Z"/>
      <g>
        <polygon class="st11" points="80.3 432.1 116.4 432.1 112.1 421.9 84.6 421.9 80.3 432.1"/>
        <path class="st12" d="M116.4,435.1h-36.1c-1,0-2-.5-2.5-1.4-.6-.8-.7-1.9-.3-2.8l4.4-10.2c.5-1.1,1.6-1.8,2.8-1.8h27.4c1.2,0,2.3.7,2.8,1.8l4.4,10.2c.4.9.3,2-.3,2.8-.6.8-1.5,1.4-2.5,1.4ZM84.8,429h27l-1.8-4.2h-23.4l-1.8,4.2Z"/>
      </g>
      <path class="st0" d="M777.3,174.6h-53.8c-.5,0-1.1.1-1.6.1h-10.7c-6.6,0-11.9-5.3-11.9-11.9s4.4-10.9,10.2-11.7c0,0,11.2-.1,11.2-.1,6.3-.6,11.3-6,11.3-12.5s-5.6-12.6-12.6-12.6h-69.2c-6.2,0-11.2-4.9-11.2-11s5-11.1,11.2-11.1l83.5.2c9.3,0,16.8-7.5,16.8-16.8s-7.5-16.8-16.8-16.8h-161.2c-9.3,0-16.8,7.5-16.8,16.8s7.5,16.8,16.8,16.8h25.5c6.2,0,11.2,4.8,11.2,10.9s-5,11-11.2,11h-17.9c-7,0-12.6,5.6-12.6,12.5s5.6,12.6,12.6,12.6h81.4c.7-.1,12.4-.2,12.4-.2,6.3,0,11.4,5.3,11.4,11.9s-4.9,11.6-11,11.8c0,0,0,0,0,0h-11c-7.4,0-13.4,6-13.4,13.4s6,13.4,13.4,13.4h114.2c7.4,0,13.4-6,13.4-13.4s-6-13.4-13.4-13.4Z"/>
      <g class="st10">
        <rect class="st9" x="276.7" y="478.2" width="89.5" height="40.4"/>
        <path class="st9" d="M276.7,553.5v20.7h89.5v-41.5c-2,7.5-5.3,14.5-9.6,20.7h-79.9Z"/>
      </g>
      <path class="st0" d="M567.8,190.1c0,6.1-5,11.1-11.1,11.1h-32.8c-6.1,0-11.1-5-11.1-11.1h0c0-6.1,5-11.1,11.1-11.1h32.8c6.1,0,11.1,5,11.1,11.1h0Z"/>
      <path class="st12" d="M625,565.5h-22.9c-1.7,0-3-1.3-3-3s1.3-3,3-3h22.9c1.7,0,3,1.3,3,3s-1.3,3-3,3Z"/>
      <g>
        <path class="st11" d="M452.7,139H18.4c-3.5,0-6.3,2.8-6.3,6.3v42.9c0,3.5,2.8,6.3,6.3,6.3h434.3c3.5,0,6.3-2.8,6.3-6.3v-42.9c0-3.5-2.8-6.3-6.3-6.3ZM91.1,181.9l-24.8-30.3h199.2l-24.8,30.3H91.1ZM74.8,181.9H31l21.9-26.7,21.9,26.7ZM279.1,155.2l21.9,26.7h-43.7l21.9-26.7ZM292.6,151.6h42.3l-21.2,25.9-21.2-25.9ZM348.3,155.2l21.9,26.7h-43.7l21.9-26.7ZM361.8,151.6h42.3l-21.1,25.9-21.2-25.9ZM417.6,155.2l21.9,26.7h-43.7l21.9-26.7Z"/>
        <path class="st12" d="M452.7,197.6H18.4c-5.2,0-9.3-4.2-9.3-9.3v-42.9c0-5.1,4.2-9.3,9.3-9.3h434.3c5.1,0,9.3,4.2,9.3,9.3v42.9c0,5.1-4.2,9.3-9.3,9.3ZM18.4,142c-1.8,0-3.3,1.5-3.3,3.3v42.9c0,1.8,1.5,3.3,3.3,3.3h434.3c1.8,0,3.3-1.5,3.3-3.3v-42.9c0-1.8-1.5-3.3-3.3-3.3H18.4ZM439.5,184.9h-43.7c-1.2,0-2.2-.7-2.7-1.7-.5-1-.3-2.3.4-3.2l21.9-26.7c.6-.7,1.4-1.1,2.3-1.1h0c.9,0,1.8.4,2.3,1.1l21.9,26.7c.7.9.9,2.1.4,3.2-.5,1.1-1.6,1.7-2.7,1.7ZM402.1,178.9h31l-15.5-19-15.5,19ZM370.2,184.9h-43.7c-1.2,0-2.2-.7-2.7-1.7-.5-1-.3-2.3.4-3.2l21.9-26.7c.6-.7,1.4-1.1,2.3-1.1s1.8.4,2.3,1.1l21.9,26.7c.7.9.9,2.1.4,3.2-.5,1.1-1.6,1.7-2.7,1.7ZM332.8,178.9h31l-15.5-19-15.5,19ZM301,184.9h-43.7c-1.2,0-2.2-.7-2.7-1.7-.5-1-.3-2.3.4-3.2l21.9-26.7c.6-.7,1.4-1.1,2.3-1.1s1.8.4,2.3,1.1l21.9,26.7c.7.9.9,2.1.4,3.2-.5,1.1-1.6,1.7-2.7,1.7ZM263.6,178.9h31l-15.5-19-15.5,19ZM240.9,184.9H91.1c-.9,0-1.8-.4-2.3-1.1l-24.8-30.3c-.7-.9-.9-2.1-.4-3.2.5-1,1.6-1.7,2.7-1.7h199.2c1.2,0,2.2.7,2.7,1.7.5,1.1.3,2.3-.4,3.2l-24.8,30.3c-.6.7-1.4,1.1-2.3,1.1ZM92.6,178.9h146.9l19.8-24.2H72.7l19.8,24.2ZM74.8,184.9H31c-1.2,0-2.2-.7-2.7-1.7-.5-1-.3-2.3.4-3.2l21.9-26.7c.6-.7,1.4-1.1,2.3-1.1h0c.9,0,1.8.4,2.3,1.1l21.9,26.7c.7.9.9,2.1.4,3.2-.5,1.1-1.6,1.7-2.7,1.7ZM37.4,178.9h31l-15.5-19-15.5,19ZM383,180.5c-.9,0-1.8-.4-2.3-1.1l-21.2-25.9c-.7-.9-.9-2.1-.4-3.2.5-1,1.6-1.7,2.7-1.7h42.3c1.2,0,2.2.7,2.7,1.7.5,1.1.3,2.3-.4,3.2l-21.1,25.9c-.6.7-1.4,1.1-2.3,1.1ZM368.2,154.6l14.8,18.1,14.8-18.1h-29.6ZM313.7,180.5c-.9,0-1.8-.4-2.3-1.1l-21.2-25.9c-.7-.9-.9-2.1-.4-3.2.5-1,1.6-1.7,2.7-1.7h42.3c1.2,0,2.2.7,2.7,1.7.5,1.1.3,2.3-.4,3.2l-21.2,25.9c-.6.7-1.4,1.1-2.3,1.1ZM298.9,154.6l14.8,18.1,14.8-18.1h-29.6Z"/>
      </g>
      <path class="st12" d="M250,352.9c-.7,0-1.4-.2-2-.7-1.3-1.1-1.4-3-.3-4.2l51.1-59.6c1.1-1.3,3-1.4,4.2-.3,1.3,1.1,1.4,3,.3,4.2l-51.1,59.6c-.6.7-1.4,1.1-2.3,1.1Z"/>
      <path class="st12" d="M352.5,352.9c-.8,0-1.7-.4-2.3-1l-50.4-58.5c-1.1-1.3-.9-3.2.3-4.2s3.2-.9,4.2.3l50.4,58.5c1.1,1.3.9,3.2-.3,4.2-.6.5-1.3.7-2,.7Z"/>
      <g>
        <path class="st11" d="M277.6,262.1c-.3,1.4-.4,2.9-.4,4.4,0,12.9,10.4,23.3,23.3,23.3s23.3-10.4,23.3-23.3-.2-3-.4-4.4h-45.7Z"/>
        <path class="st12" d="M300.4,292.8c-14.5,0-26.3-11.8-26.3-26.3s.2-3.3.5-5c.3-1.4,1.5-2.4,3-2.4h45.7c1.4,0,2.7,1,3,2.4.3,1.7.5,3.3.5,5,0,14.5-11.8,26.3-26.3,26.3ZM280.2,265.1c0,.5,0,.9,0,1.4,0,11.2,9.1,20.3,20.3,20.3s20.3-9.1,20.3-20.3,0-.9,0-1.4h-40.4Z"/>
      </g>
      <g>
        <g>
          <rect class="st2" x="250" y="462.9" width="98.2" height="111.3"/>
          <path class="st12" d="M348.2,577.2h-98.2c-1.7,0-3-1.3-3-3v-111.3c0-1.7,1.3-3,3-3h98.2c1.7,0,3,1.3,3,3v111.3c0,1.7-1.3,3-3,3ZM253,571.2h92.2v-105.3h-92.2v105.3Z"/>
        </g>
        <path class="st12" d="M331.5,490.7h-64.8c-1.7,0-3-1.3-3-3s1.3-3,3-3h64.8c1.7,0,3,1.3,3,3s-1.3,3-3,3Z"/>
        <path class="st12" d="M331.5,518.6h-64.8c-1.7,0-3-1.3-3-3s1.3-3,3-3h64.8c1.7,0,3,1.3,3,3s-1.3,3-3,3Z"/>
        <path class="st12" d="M294.1,546.5h-27.4c-1.7,0-3-1.3-3-3s1.3-3,3-3h27.4c1.7,0,3,1.3,3,3s-1.3,3-3,3Z"/>
      </g>
      <g>
        <polygon class="st11" points="131.6 87.6 131.6 194.6 88.3 194.6 88.3 138.9 131.6 87.6"/>
        <path class="st12" d="M131.6,197.6h-43.3c-1.7,0-3-1.3-3-3v-55.6c0-.7.3-1.4.7-1.9l43.3-51.3c.8-1,2.1-1.3,3.3-.9,1.2.4,2,1.6,2,2.8v107c0,1.7-1.3,3-3,3ZM91.3,191.5h37.3v-95.7l-37.3,44.2v51.5Z"/>
      </g>
      <g>
        <path class="st6" d="M242.5,194.6l.2-40.9-29.1-66h-81.6v430.5h-23.3v56.2h23.3s13.4,0,13.4,0h0s23.4,0,23.4,0h0s13.4,0,13.4,0h0s26.9,0,26.9,0v-56.2h-26.9V194.6h60.4ZM145.3,236.2l20.5,24.5-20.5,24.5v-49ZM165.8,332.2l-20.5,24.5v-49l20.5,24.5ZM165.8,403.6l-20.5,24.5v-49l20.5,24.5ZM165.8,475.1l-20.5,24.5v-49l20.5,24.5ZM168.7,518.1h-23.4v-1.8c.3-.2.6-.5.9-.8l22.5-26.9v29.5ZM168.7,461.7l-18.7-22.3,18.7-22.3v44.6ZM168.7,390.2l-18.7-22.3,18.7-22.3v44.6ZM168.7,318.7l-18.7-22.3,18.7-22.3v44.6ZM168.7,247.2l-18.7-22.3,18.7-25.4v47.7Z"/>
        <path class="st12" d="M182.1,577.3h-13.4c0,0-.2,0-.3,0h-22.8c0,0-.2,0-.3,0h-13.4c0,0-.2,0-.3,0h-23c-1.7,0-3-1.3-3-3v-56.2c0-1.7,1.3-3,3-3h20.3V87.6c0-1.7,1.3-3,3-3h81.6c1.2,0,2.3.7,2.8,1.8l29.1,66c.2.4.3.8.3,1.2l-.2,40.9c0,1.7-1.4,3-3,3h-57.4v317.5h23.9c1.7,0,3,1.3,3,3v56.2c0,1.7-1.3,3-3,3h-26.6c0,0-.2,0-.3,0ZM169,571.3h12.8c0,0,.2,0,.3,0h23.9v-50.2h-23.9c-1.7,0-3-1.3-3-3V194.6c0-1.7,1.3-3,3-3h57.4l.2-37.3-28.1-63.7h-76.7v427.5c0,1.7-1.3,3-3,3h-20.3v50.2h20.3c0,0,.2,0,.3,0h12.8c0,0,.2,0,.3,0h23.4c0,0,.2,0,.3,0ZM168.7,521.1h-23.4c-1.7,0-3-1.3-3-3v-1.8c0-1,.5-1.9,1.2-2.4.2-.1.3-.2.3-.3l22.5-26.9c.8-1,2.1-1.3,3.3-.9,1.2.4,2,1.6,2,2.8v29.5c0,1.7-1.3,3-3,3ZM150.5,515.1h15.2v-18.2l-15.2,18.2ZM145.3,502.6c-.3,0-.7,0-1-.2-1.2-.4-2-1.6-2-2.8v-49c0-1.3.8-2.4,2-2.8,1.2-.4,2.5,0,3.3.9l20.5,24.5c.9,1.1.9,2.7,0,3.9l-20.5,24.5c-.6.7-1.4,1.1-2.3,1.1ZM148.3,458.9v32.4l13.6-16.2-13.6-16.2ZM168.7,464.7c-.9,0-1.7-.4-2.3-1.1l-18.7-22.3c-.9-1.1-.9-2.7,0-3.9l18.7-22.3c.8-1,2.1-1.3,3.3-.9,1.2.4,2,1.6,2,2.8v44.6c0,1.3-.8,2.4-2,2.8-.3.1-.7.2-1,.2ZM154,439.4l11.7,14v-28.1l-11.7,14ZM145.3,431.1c-.3,0-.7,0-1-.2-1.2-.4-2-1.6-2-2.8v-49c0-1.3.8-2.4,2-2.8s2.5,0,3.3.9l20.5,24.5c.9,1.1.9,2.7,0,3.9l-20.5,24.5c-.6.7-1.4,1.1-2.3,1.1ZM148.3,387.4v32.4l13.6-16.2-13.6-16.2ZM168.7,393.2c-.9,0-1.7-.4-2.3-1.1l-18.7-22.3c-.9-1.1-.9-2.7,0-3.9l18.7-22.3c.8-1,2.1-1.3,3.3-.9,1.2.4,2,1.6,2,2.8v44.6c0,1.3-.8,2.4-2,2.8-.3.1-.7.2-1,.2ZM154,367.9l11.7,14v-28.1l-11.7,14ZM145.3,359.7c-.3,0-.7,0-1-.2-1.2-.4-2-1.6-2-2.8v-49c0-1.3.8-2.4,2-2.8,1.2-.4,2.5,0,3.3.9l20.5,24.5c.9,1.1.9,2.7,0,3.9l-20.5,24.5c-.6.7-1.4,1.1-2.3,1.1ZM148.3,316v32.4l13.6-16.2-13.6-16.2ZM168.7,321.7c-.9,0-1.7-.4-2.3-1.1l-18.7-22.3c-.9-1.1-.9-2.7,0-3.9l18.7-22.3c.8-1,2.1-1.3,3.3-.9,1.2.4,2,1.6,2,2.8v44.6c0,1.3-.8,2.4-2,2.8-.3.1-.7.2-1,.2ZM154,296.4l11.7,14v-28.1l-11.7,14ZM145.3,288.2c-.3,0-.7,0-1-.2-1.2-.4-2-1.6-2-2.8v-49c0-1.3.8-2.4,2-2.8,1.2-.4,2.5,0,3.3.9l20.5,24.5c.9,1.1.9,2.7,0,3.9l-20.5,24.5c-.6.7-1.4,1.1-2.3,1.1ZM148.3,244.5v32.4l13.6-16.2-13.6-16.2ZM168.7,250.3c-.9,0-1.7-.4-2.3-1.1l-18.7-22.3c-.9-1.1-.9-2.6-.1-3.7l18.7-25.4c.8-1,2.1-1.5,3.4-1.1,1.2.4,2.1,1.6,2.1,2.9v47.7c0,1.3-.8,2.4-2,2.8-.3.1-.7.2-1,.2ZM153.9,224.8l11.8,14.1v-30.2l-11.8,16.1Z"/>
      </g>
      <g>
        <polygon class="st0" points="203.1 109.2 153.7 109.2 153.7 165.6 220.7 165.6 220.4 146.6 203.1 109.2"/>
        <path class="st12" d="M220.7,168.6h-66.9c-1.7,0-3-1.3-3-3v-56.4c0-1.7,1.3-3,3-3h49.4c1.2,0,2.2.7,2.7,1.7l17.3,37.4c.2.4.3.8.3,1.2l.3,19c0,.8-.3,1.6-.9,2.2-.6.6-1.3.9-2.1.9ZM156.7,162.6h60.9l-.2-15.3-16.2-35.1h-44.5v50.4Z"/>
      </g>
      <g class="st7">
        <path class="st1" d="M398.9,521.3v6.4c0,9.2,7.5,16.7,16.7,16.7s16.7-7.5,16.7-16.7v-6.4h-33.5Z"/>
      </g>
      <g>
        <rect class="st4" x="573.2" y="434.2" width="120.6" height="31.3"/>
        <path class="st12" d="M696.8,468.5h-126.6v-37.3h126.6v37.3ZM576.2,462.5h114.6v-25.3h-114.6v25.3Z"/>
      </g>
      <rect class="st12" x="582.7" y="444.3" width="18.9" height="7.6"/>
      <rect class="st12" x="606.9" y="444.3" width="7.6" height="7.6"/>
      <path class="st12" d="M192.8,150.7c-.8,0-1.5-.3-2.1-.9l-24.6-24.6c-1.2-1.2-1.2-3.1,0-4.3s3.1-1.2,4.3,0l24.6,24.6c1.2,1.2,1.2,3.1,0,4.3s-1.4.9-2.1.9Z"/>
      <path class="st12" d="M196.9,141.1c-.8,0-1.5-.3-2.1-.9l-14-14c-1.2-1.2-1.2-3.1,0-4.3,1.2-1.2,3.1-1.2,4.3,0l14,14c1.2,1.2,1.2,3.1,0,4.3-.6.6-1.4.9-2.1.9Z"/>
      <g>
        <rect class="st2" x="267.7" y="364.7" width="27.6" height="27.5"/>
        <path class="st12" d="M295.3,395.3h-27.6c-1.7,0-3-1.3-3-3v-27.5c0-1.7,1.3-3,3-3h27.6c1.7,0,3,1.3,3,3v27.5c0,1.7-1.3,3-3,3ZM270.7,389.2h21.5v-21.5h-21.5v21.5Z"/>
      </g>
    </g>
  </g>
</svg>